  <svg xmlns="http://www.w3.org/2000/svg" viewBox="0 0 106.723 213.444" width="100%" style="vertical-align: middle; max-width: 100%; width: 100%;">
   <g>
    <g>
     <path d="M0,213.444v-12a94.83,94.83,0,0,0,94.722-94.722A94.83,94.83,0,0,0,0,12V0A106.842,106.842,0,0,1,106.723,106.722,106.842,106.842,0,0,1,0,213.444Z" fill="rgb(242,235,205)">
     </path>
     <path d="M0,213.444v-12a94.83,94.83,0,0,0,94.722-94.722A94.83,94.83,0,0,0,0,12V0A106.842,106.842,0,0,1,106.723,106.722,106.842,106.842,0,0,1,0,213.444Z" fill="rgb(242,235,205)">
     </path>
     <path d="M0,193.444v-12a74.807,74.807,0,0,0,74.723-74.722A74.807,74.807,0,0,0,0,32V20a86.821,86.821,0,0,1,86.723,86.722A86.821,86.821,0,0,1,0,193.444Z" fill="rgb(242,235,205)">
     </path>
     <path d="M0,173.444v-12a54.785,54.785,0,0,0,54.723-54.722A54.785,54.785,0,0,0,0,52V40a66.8,66.8,0,0,1,66.723,66.722A66.8,66.8,0,0,1,0,173.444Z" fill="rgb(242,235,205)">
     </path>
     <path d="M0,153.444v-12a34.762,34.762,0,0,0,34.723-34.722A34.762,34.762,0,0,0,0,72V60a46.775,46.775,0,0,1,46.723,46.722A46.776,46.776,0,0,1,0,153.444Z" fill="rgb(242,235,205)">
     </path>
    </g>
   </g>
  </svg>
